<svg style="-webkit-transform:rotate(270deg);-ms-transform:rotate(270deg);-o-transform:rotate(270deg);transform:rotate(270deg);-webkit-transform-origin: 200.00001525878906px 200.00001525878906px;" viewBox="0 0 400 400" preserveAspectRatio="none" class="listtopie-svg"><desc>Created with Snap</desc><defs></defs><g><path d="M390.0000305175781,200.00001525878906 A190.00001525878906,190.00001525878906 0 0,1 377.6460913614102,267.39346778707113 L279.47325344856495,230.14971528434728 A85,85 0 0,0 285.00001525878906,200.00001525878906 L390.0000305175781,200.00001525878906 Z" id="PathsvgSkumvx04h00" idInt="0" stroke="#f2f8fe" fill="#f8c04e" start="0" deg="20.77520340586566" note="12.2" style="fill-opacity: 1; stroke-width: 5;"></path><path d="M377.6460913614102,267.39346778707113 A190.00001525878906,190.00001525878906 0 0,1 245.03383061894405,384.5859336611622 L220.1467205124672,282.5779194912253 A85,85 0 0,0 279.47325344856495,230.14971528434728 L377.6460913614102,267.39346778707113 Z" id="PathsvgSkumvx04h01" idInt="1" stroke="#f2f8fe" fill="#ac56f7" start="20.77520340586566" deg="55.514068117313165" note="32.6" style="fill-opacity: 1; stroke-width: 5;"></path><path d="M245.03383061894405,384.5859336611622 A190.00001525878906,190.00001525878906 0 0,1 51.636365498412545,318.69387874010135 L133.62680885427721,253.09989728863985 A85,85 0 0,0 220.1467205124672,282.5779194912253 L245.03383061894405,384.5859336611622 Z" id="PathsvgSkumvx04h02" idInt="2" stroke="#f2f8fe" fill="#61f89f" start="76.28927152317883" deg="65.05022705771052" note="38.2" style="fill-opacity: 1; stroke-width: 5;"></path><path d="M51.636365498412545,318.69387874010135 A190.00001525878906,190.00001525878906 0 0,1 91.94264789836441,43.71946254197047 L151.65856532192532,130.08503676346447 A85,85 0 0,0 133.62680885427721,253.09989728863985 L51.636365498412545,318.69387874010135 Z" id="PathsvgSkumvx04h03" idInt="3" stroke="#f2f8fe" fill="#5ad6f8" start="141.33949858088934" deg="93.99928098391675" note="55.2" style="fill-opacity: 1; stroke-width: 5;"></path><path d="M91.94264789836441,43.71946254197047 A190.00001525878906,190.00001525878906 0 0,1 390.0000276237124,199.9668540005065 L285.000013964165,199.9851799602225 A85,85 0 0,0 151.65856532192532,130.08503676346447 L91.94264789836441,43.71946254197047 Z" id="PathsvgSkumvx04h04" idInt="4" stroke="#f2f8fe" fill="#f85d77" start="235.3387795648061" deg="124.65122043519396" note="73.2" style="fill-opacity: 1; stroke-width: 5;"></path></g><g><text x="319.19178045999337" y="234.93275855925816" id="tsvgSkumvx04h0PathsvgSkumvx04h00" stroke="#3d1f94" fill="#3d1f94" tx="335.24646795999337" ty="224.79213355925816" style="font-size: 18px; pointer-events: none; font-family: Rubik; font-weight: 300; opacity: 1;" transform="matrix(0,1,-1,0,560.0386,-110.4543)">12.2</text><text x="274.9976325412945" y="313.17330445746586" id="tsvgSkumvx04h0PathsvgSkumvx04h01" stroke="#3d1f94" fill="#3d1f94" tx="291.0523200412945" ty="303.03267945746586" style="font-size: 18px; pointer-events: none; font-family: Rubik; font-weight: 300; opacity: 1;" transform="matrix(0,1,-1,0,594.085,11.9804)">32.6</text><text x="139.6011137097513" y="340.29379150168705" id="tsvgSkumvx04h0PathsvgSkumvx04h02" stroke="#3d1f94" fill="#3d1f94" tx="155.6558012097513" ty="330.15316650168705" style="font-size: 18px; pointer-events: none; font-family: Rubik; font-weight: 300; opacity: 1;" transform="matrix(0,1,-1,0,485.809,174.4974)">38.2</text><text x="47.89911490655549" y="190.19872293250597" id="tsvgSkumvx04h0PathsvgSkumvx04h03" stroke="#3d1f94" fill="#3d1f94" tx="63.95380240655549" ty="180.05809793250597" style="font-size: 18px; pointer-events: none; font-family: Rubik; font-weight: 300; opacity: 1;" transform="matrix(0,1,-1,0,244.0119,116.1043)">55.2</text><text x="247.78543593688255" y="88.36712132456276" id="tsvgSkumvx04h0PathsvgSkumvx04h04" stroke="#3d1f94" fill="#3d1f94" tx="263.84012343688255" ty="78.21868382456276" style="font-size: 18px; pointer-events: none; font-family: Rubik; font-weight: 300; opacity: 1;" transform="matrix(0,1,-1,0,342.0588,-185.6214)">73.2</text></g><line x1="283.60690865320646" x2="386.8860272667803" y1="215.3260511759636" y2="234.25821594255274" id="lsvgSkumvx04h00"></line><line x1="256.2868914557213" x2="325.81774862686774" y1="263.69293141114645" y2="342.3724275037852" id="lsvgSkumvx04h01"></line><line x1="172.58722991315085" x2="138.72437250635176" y1="280.4583224718666" y2="379.8480105315075" id="lsvgSkumvx04h02"></line><line x1="115.8987247075314" x2="12.008880105579578" y1="187.67228523201854" y2="172.44391063299338" id="lsvgSkumvx04h03"></line><line x1="239.46480721548343" x2="288.21543965828164" y1="124.71701454936708" y2="31.720353099758427" id="lsvgSkumvx04h04"></line></svg>